<?xml version="1.0"?>
<svg xmlns="http://www.w3.org/2000/svg" id="Capa_1" enable-background="new 0 0 499.999 499.999" height="512px" viewBox="0 0 499.999 499.999" width="512px"><g><path d="m265.624 251.581v-251.581h-31.25v251.581c-35.616 7.259-62.5 38.818-62.5 76.544s26.884 69.284 62.5 76.544v95.331h31.25v-95.331c35.616-7.259 62.5-38.818 62.5-76.544s-26.884-69.285-62.5-76.544zm-15.624 123.418c-25.848 0-46.875-21.027-46.875-46.875s21.027-46.875 46.875-46.875 46.875 21.027 46.875 46.875c-.001 25.849-21.027 46.875-46.875 46.875z" data-original="#000000" class="active-path" fill="#000000"/><path d="m93.75 95.331v-95.331h-31.25v95.331c-35.616 7.259-62.5 38.818-62.5 76.544s26.884 69.284 62.5 76.544v251.581h31.25v-251.582c35.616-7.259 62.5-38.818 62.5-76.544s-26.884-69.284-62.5-76.543zm-15.625 123.419c-25.848 0-46.875-21.027-46.875-46.875s21.027-46.875 46.875-46.875 46.875 21.026 46.875 46.875-21.027 46.875-46.875 46.875z" data-original="#000000" class="active-path" fill="#000000"/><path d="m499.999 171.875c0-37.725-26.884-69.284-62.5-76.544v-95.331h-31.25v95.331c-35.616 7.259-62.5 38.818-62.5 76.544s26.884 69.284 62.5 76.544v251.581h31.25v-251.582c35.616-7.259 62.5-38.818 62.5-76.543zm-78.125 46.875c-25.848 0-46.875-21.027-46.875-46.875s21.027-46.875 46.875-46.875 46.875 21.027 46.875 46.875-21.026 46.875-46.875 46.875z" data-original="#000000" class="active-path" fill="#000000"/></g> </svg>
