<?xml version="1.0"?>
<svg xmlns="http://www.w3.org/2000/svg" xmlns:xlink="http://www.w3.org/1999/xlink" version="1.1" id="Capa_1" x="0px" y="0px" viewBox="0 0 512 512" style="enable-background:new 0 0 512 512;" xml:space="preserve" width="512px" height="512px"><g><g>
	<g>
		<path d="M276,279.44V0h-40v279.44c-23.278,8.256-40,30.487-40,56.56s16.722,48.304,40,56.56V512h40V392.56    c23.278-8.256,40-30.487,40-56.56S299.278,287.696,276,279.44z M256,356c-11.028,0-20-8.972-20-20s8.972-20,20-20s20,8.972,20,20    S267.028,356,256,356z" data-original="#000000" class="active-path" fill="#000000"/>
	</g>
</g><g>
	<g>
		<path d="M92,87.44V0H52v87.44C28.722,95.696,12,117.927,12,144s16.722,48.304,40,56.56V512h40V200.56    c23.278-8.256,40-30.487,40-56.56S115.278,95.696,92,87.44z M72,164c-11.028,0-20-8.972-20-20s8.972-20,20-20s20,8.972,20,20    S83.028,164,72,164z" data-original="#000000" class="active-path" fill="#000000"/>
	</g>
</g><g>
	<g>
		<path d="M460,167.44V0h-40v167.44c-23.278,8.256-40,30.487-40,56.56s16.722,48.304,40,56.56V512h40V280.56    c23.278-8.256,40-30.487,40-56.56S483.278,175.696,460,167.44z M440,244c-11.028,0-20-8.972-20-20s8.972-20,20-20s20,8.972,20,20    S451.028,244,440,244z" data-original="#000000" class="active-path" fill="#000000"/>
	</g>
</g></g> </svg>
