<?xml version="1.0"?>
<svg xmlns="http://www.w3.org/2000/svg" id="Capa_1" enable-background="new 0 0 512 512" height="512px" viewBox="0 0 512 512" width="512px" class=""><g><g><path d="m61 467c0 24.813 20.187 45 45 45h330c8.284 0 15-6.716 15-15v-422c0-8.284-6.716-15-15-15h-15v-30h15c8.284 0 15-6.716 15-15s-6.716-15-15-15h-330c-24.813 0-45 20.187-45 45zm45-437h285v30h-285c-8.271 0-15-6.729-15-15s6.729-15 15-15zm-15 57.43c4.693 1.664 9.743 2.57 15 2.57h315v392h-315c-8.271 0-15-6.729-15-15z" data-original="#000000" class="active-path" fill="#000000"/><path d="m211 422c33.645 0 60-19.766 60-45v-163.762c10.248 9.225 22.21 16.55 35.394 21.532 32.492 12.28 31.71 52.569 3.724 64.5-7.621 3.249-11.165 12.061-7.916 19.681s12.059 11.164 19.681 7.916c52.316-22.304 53.484-98.101-4.884-120.159-35.844-13.546-45.558-43.61-47.583-46.418-7.055-14.102-28.416-9.059-28.416 6.71v170.856c-8.778-3.73-18.994-5.856-30-5.856-33.645 0-60 19.766-60 45s26.355 45 60 45zm0-60c18.313 0 30 8.884 30 15s-11.687 15-30 15-30-8.884-30-15 11.687-15 30-15z" data-original="#000000" class="active-path" fill="#000000"/></g></g> </svg>
