<?xml version="1.0"?>
<svg xmlns="http://www.w3.org/2000/svg" xmlns:xlink="http://www.w3.org/1999/xlink" version="1.1" id="Layer_1" x="0px" y="0px" viewBox="0 0 513.692 513.692" style="enable-background:new 0 0 513.692 513.692;" xml:space="preserve" width="512px" height="512px"><g><g>
	<g>
		<path d="M345.629,201.389L89.563,15.361C69.124,0,46.865-3.386,29.811,5.076C11.065,15.361,0.781,35.798,0.781,61.444v390.802    c0,27.338,10.284,47.777,29.03,56.368c6.769,3.385,13.669,5.077,20.439,5.077c11.977,0,25.646-5.077,41.007-15.361    l254.242-186.029c18.746-13.669,30.723-34.107,30.723-56.368C376.351,235.626,364.375,215.058,345.629,201.389z M323.368,286.788    L69.125,472.815c-8.592,6.769-18.746,10.285-23.953,6.769c-6.769-3.385-10.284-11.977-10.284-25.646V63.137    c0-13.669,3.385-22.13,10.284-25.646c1.692-1.692,3.385-1.692,5.077-1.692c5.077,0,11.977,1.692,17.054,8.591l256.065,186.029    c11.977,6.769,17.054,17.053,17.054,27.338C340.422,268.042,333.652,278.196,323.368,286.788z" data-original="#000000" class="active-path" fill="#000000"/>
	</g>
</g><g>
	<g>
		<path d="M470.212,0h-11.977c-23.953,0-42.699,18.747-42.699,42.699v426.731c0,23.953,18.746,42.699,42.699,42.699h11.977    c23.953,0,42.699-18.747,42.699-42.699V42.699C512.911,18.876,494.035,0,470.212,0z M478.673,469.431    c0,5.077-3.385,8.591-8.592,8.591h-11.977c-5.077,0-8.592-3.385-8.592-8.591V42.699c0-5.077,3.385-8.591,8.592-8.591h11.977    c5.077,0,8.592,3.385,8.592,8.591V469.431z" data-original="#000000" class="active-path" fill="#000000"/>
	</g>
</g></g> </svg>
