<?xml version="1.0"?>
<svg xmlns="http://www.w3.org/2000/svg" xmlns:xlink="http://www.w3.org/1999/xlink" version="1.1" id="Capa_1" x="0px" y="0px" viewBox="0 0 512 512" style="enable-background:new 0 0 512 512;" xml:space="preserve" width="512px" height="512px" class=""><g><g>
	<g>
		<path d="M124.5,0h-35c-44.112,0-80,35.888-80,80v352c0,44.112,35.888,80,80,80h35c44.112,0,80-35.888,80-80V80    C204.5,35.888,168.612,0,124.5,0z M164.5,432c0,22.056-17.944,40-40,40h-35c-22.056,0-40-17.944-40-40V80    c0-22.056,17.944-40,40-40h35c22.056,0,40,17.944,40,40V432z" data-original="#000000" class="active-path" data-old_color="#000000" fill="#FFFFFF"/>
	</g>
</g><g>
	<g>
		<path d="M482.5,352c11.046,0,20-8.954,20-20V80c0-44.112-35.888-80-80-80h-34c-44.112,0-80,35.888-80,80v352    c0,44.112,35.888,80,80,80h34c44.112,0,80-35.888,80-80c0-11.046-8.954-20-20-20c-11.046,0-20,8.954-20,20    c0,22.056-17.944,40-40,40h-34c-22.056,0-40-17.944-40-40V80c0-22.056,17.944-40,40-40h34c22.056,0,40,17.944,40,40v252    C462.5,343.046,471.454,352,482.5,352z" data-original="#000000" class="active-path" data-old_color="#000000" fill="#FFFFFF"/>
	</g>
</g></g> </svg>
