<?xml version="1.0"?>
<svg xmlns="http://www.w3.org/2000/svg" xmlns:xlink="http://www.w3.org/1999/xlink" version="1.1" id="Capa_1" x="0px" y="0px" viewBox="0 0 448.106 448.106" style="enable-background:new 0 0 448.106 448.106;" xml:space="preserve" width="512px" height="512px" class=""><g><g>
	<g>
		<path d="M436.736,151.829c-13.152-26.976-35.744-42.08-57.6-56.704c-16.288-10.912-31.648-21.216-42.528-35.968l-2.016-2.72    c-6.4-8.608-13.696-18.368-14.816-26.56c-0.096-0.672-0.48-1.216-0.672-1.888c-0.288-1.12-0.608-2.176-1.12-3.2    c-0.384-0.832-0.928-1.568-1.504-2.336c-0.672-0.864-1.312-1.696-2.144-2.4c-0.8-0.704-1.664-1.184-2.56-1.728    c-0.832-0.48-1.6-0.928-2.528-1.248c-1.12-0.416-2.272-0.576-3.488-0.704c-0.608-0.032-1.12-0.32-1.76-0.32    c-0.384,0-0.704,0.192-1.056,0.224c-0.384,0.032-0.736-0.128-1.12-0.064c-0.704,0.096-1.248,0.48-1.92,0.672    c-1.088,0.288-2.112,0.576-3.072,1.088c-0.896,0.448-1.664,1.024-2.432,1.664c-0.832,0.64-1.632,1.28-2.304,2.08    c-0.672,0.768-1.152,1.6-1.664,2.464c-0.512,0.896-0.992,1.76-1.344,2.752s-0.48,2.016-0.608,3.104    c-0.16,0.64-0.48,1.28-0.48,2.016v285.12c-13.408-8.128-29.92-13.12-48-13.12c-44.128,0-80,28.704-80,64c0,35.296,35.872,64,80,64    s80-28.704,80-64V181.557c24.032,9.184,63.36,32.576,74.176,87.2c-2.016,2.976-3.936,6.208-6.176,8.736    c-5.856,6.624-5.184,16.736,1.44,22.56c3.04,2.688,6.816,4,10.56,4c4.448,0,8.832-1.856,12-5.44    c4.256-4.832,8.064-10.56,11.712-16.448c0.416-0.512,0.736-0.992,1.088-1.536c12.928-21.632,21.504-48.992,23.136-76.032    C448.992,187.221,445.12,168.981,436.736,151.829z M240,400.053c-26.016,0-48-14.656-48-32s21.984-32,48-32s48,14.656,48,32    S266.016,400.053,240,400.053z M416.032,202.581c-0.448,7.488-1.6,14.976-3.232,22.304c-22.496-45.152-63.296-68.672-92.8-77.376    V88.725c12.544,13.376,27.104,23.392,41.376,32.928c19.168,12.832,37.28,24.96,46.656,44.192    C413.92,177.845,416.736,190.933,416.032,202.581z" data-original="#000000" class="active-path" fill="#000000"/>
	</g>
</g><g>
	<g>
		<path d="M208,16.053H16c-8.832,0-16,7.168-16,16c0,8.832,7.168,16,16,16h192c8.832,0,16-7.168,16-16    C224,23.221,216.832,16.053,208,16.053z" data-original="#000000" class="active-path" fill="#000000"/>
	</g>
</g><g>
	<g>
		<path d="M208,112.053H16c-8.832,0-16,7.168-16,16c0,8.832,7.168,16,16,16h192c8.832,0,16-7.168,16-16    C224,119.221,216.832,112.053,208,112.053z" data-original="#000000" class="active-path" fill="#000000"/>
	</g>
</g><g>
	<g>
		<path d="M112,208.053H16c-8.832,0-16,7.168-16,16c0,8.832,7.168,16,16,16h96c8.832,0,16-7.168,16-16    C128,215.221,120.832,208.053,112,208.053z" data-original="#000000" class="active-path" fill="#000000"/>
	</g>
</g><g>
	<g>
		<path d="M112,304.053H16c-8.832,0-16,7.168-16,16c0,8.832,7.168,16,16,16h96c8.832,0,16-7.168,16-16    C128,311.221,120.832,304.053,112,304.053z" data-original="#000000" class="active-path" fill="#000000"/>
	</g>
</g></g> </svg>
