<?xml version="1.0"?>
<svg xmlns="http://www.w3.org/2000/svg" xmlns:xlink="http://www.w3.org/1999/xlink" version="1.1" id="Layer_1" x="0px" y="0px" viewBox="0 0 338.438 338.438" style="enable-background:new 0 0 338.438 338.438;" xml:space="preserve" width="512px" height="512px"><g><g>
	<g>
		<path d="M320.377,3.44c-5.677-3.354-18.062-5.676-36.123,6.795L118.518,133.139c-12.385,9.03-20.298,22.534-20.298,37.241    c0,13.503,7.913,27.092,20.298,36.123l166.854,122.905c10.149,6.795,18.062,9.031,24.77,9.031c5.677,0,9.03-1.118,10.149-2.236    c5.677-3.354,16.944-12.386,16.944-37.241V40.769C337.234,15.825,327.085,6.795,320.377,3.44z M311.346,315.819    c-1.118,1.118-5.677,0-12.385-4.472L133.225,188.441c-7.913-4.472-11.267-11.267-11.267-18.062s3.354-13.503,11.267-19.179    L298.961,28.296c6.794-4.472,11.267-5.676,12.385-4.472c1.118,0,4.472,5.676,4.472,16.944v258.107h0.001    C315.819,310.141,312.464,314.7,311.346,315.819z" data-original="#000000" class="active-path" fill="#000000"/>
	</g>
</g><g>
	<g>
		<path d="M37.328,0h-7.913C13.589,0,1.204,12.386,1.204,28.21v281.931c0,15.825,12.385,28.21,28.21,28.21h7.913    c15.825,0,28.21-12.386,28.21-28.21V28.21C65.538,12.471,53.153,0,37.328,0z M43.004,310.141c0,3.354-2.236,5.676-5.677,5.676    h-7.913c-3.355,0-5.677-2.236-5.677-5.676V28.21c0-3.355,2.236-5.676,5.677-5.676h7.913c3.354,0,5.677,2.236,5.677,5.676V310.141z    " data-original="#000000" class="active-path" fill="#000000"/>
	</g>
</g></g> </svg>
