<?xml version="1.0"?>
<svg xmlns="http://www.w3.org/2000/svg" id="Capa_1" enable-background="new 0 0 512 512" height="512px" viewBox="0 0 512 512" width="512px"><g><g><path d="m95.024 135.878 315.625-76.658-7.08-29.152-403.569 98.017v353.848h512v-346.055zm386.976 316.055h-452v-286.055h452z" data-original="#000000" class="active-path" fill="#000000"/><path d="m173.027 421.933c62.324 0 113.027-50.704 113.027-113.027s-50.704-113.027-113.027-113.027-113.027 50.703-113.027 113.026 50.704 113.028 113.027 113.028zm-81.644-98.028h36.644v54.72c-18.848-12.208-32.448-31.833-36.644-54.72zm66.644 66.644v-66.644h30v66.644c-4.869.893-9.877 1.383-15 1.383s-10.131-.49-15-1.383zm60-11.924v-54.72h36.644c-4.195 22.887-17.795 42.512-36.644 54.72zm36.644-84.72h-36.644v-54.72c18.849 12.209 32.449 31.834 36.644 54.72zm-66.644-66.644v66.644h-30v-66.644c4.869-.893 9.877-1.383 15-1.383s10.131.491 15 1.383zm-60 11.925v54.72h-36.644c4.196-22.887 17.796-42.512 36.644-54.72z" data-original="#000000" class="active-path" fill="#000000"/><path d="m389 293.905c24.813 0 45-20.187 45-45s-20.187-45-45-45-45 20.187-45 45 20.187 45 45 45zm0-60c8.271 0 15 6.729 15 15s-6.729 15-15 15-15-6.729-15-15 6.729-15 15-15z" data-original="#000000" class="active-path" fill="#000000"/><path d="m389 413.905c24.813 0 45-20.187 45-45s-20.187-45-45-45-45 20.187-45 45 20.187 45 45 45zm0-60c8.271 0 15 6.729 15 15s-6.729 15-15 15-15-6.729-15-15 6.729-15 15-15z" data-original="#000000" class="active-path" fill="#000000"/></g></g> </svg>
